<svg width="0" height="0" class="hidden">
    <symbol xmlns="http://www.w3.org/2000/svg" viewBox="0 0 19 19" id="search">
        <path fill-rule="evenodd" clip-rule="evenodd" d="M17.9 16.486l-3.58-3.58a8 8 0 10-1.415 1.413l3.58 3.58a1 1 0 101.416-1.413zM13.198 11A6 6 0 112.804 5a6 6 0 0110.393 6z"></path>
    </symbol>
    <symbol xmlns="http://www.w3.org/2000/svg" viewBox="0 0 27 20" id="video">
        <path opacity=".24" fill-rule="evenodd" clip-rule="evenodd" d="M22.208 2.868L18.41 5.682v-3.18C18.41 1.119 17.31 0 15.955 0h-13.5C1.095 0 0 1.12 0 2.503v14.994C0 18.882 1.099 20 2.454 20h13.501c1.358 0 2.454-1.12 2.454-2.503v-3.179l3.8 2.814a2.19 2.19 0 001.111.368h2.45c.686 0 1.23-.561 1.23-1.253V3.753c0-.692-.551-1.253-1.23-1.253h-2.45a2.16 2.16 0 00-1.112.368zM2.455 17.5v-15h13.5v15h-13.5zm2.454-3.75c0-.69.55-1.25 1.231-1.25h6.13c.679 0 1.23.555 1.23 1.25 0 .69-.55 1.25-1.23 1.25H6.14c-.68 0-1.23-.555-1.23-1.25zM23.511 15l-5.087-3.762V8.762l5.083-3.765 1.038.001v10L23.512 15z"></path>
    </symbol>
    <symbol xmlns="http://www.w3.org/2000/svg" viewBox="0 0 21 21" id="menu">
        <path opacity=".24" fill-rule="evenodd" clip-rule="evenodd" d="M0 2.5a2.5 2.5 0 105 0 2.5 2.5 0 00-5 0zM2.5 13a2.5 2.5 0 110-5 2.5 2.5 0 010 5zm0 8a2.5 2.5 0 110-5 2.5 2.5 0 010 5zm8 0a2.5 2.5 0 110-5 2.5 2.5 0 010 5zm5.5-2.5a2.5 2.5 0 105 0 2.5 2.5 0 00-5 0zM10.5 13a2.5 2.5 0 110-5 2.5 2.5 0 010 5zM8 2.5a2.5 2.5 0 105 0 2.5 2.5 0 00-5 0zM18.5 13a2.5 2.5 0 110-5 2.5 2.5 0 010 5zM16 2.5a2.5 2.5 0 105 0 2.5 2.5 0 00-5 0z"></path>
    </symbol>
    <symbol xmlns="http://www.w3.org/2000/svg" viewBox="0 0 22 26" id="notification">
        <path fill-rule="evenodd" clip-rule="evenodd" d="M3.67 22.454C1.643 22.454 0 20.866 0 18.91c0-1.298.727-2.456 1.838-3.074l-.005-4.61c0-4.083 2.836-7.521 6.723-8.548v-.313C8.556 1.058 9.65 0 11 0c1.35 0 2.444 1.058 2.444 2.364v.313c3.888 1.026 6.723 4.465 6.723 8.555v4.613C21.279 16.466 22 17.62 22 18.91c0 1.96-1.641 3.546-3.67 3.546h-3.663C14.665 24.412 13.02 26 11 26c-2.025 0-3.667-1.586-3.667-3.543l-3.664-.003zm6.108 0c0 .654.546 1.182 1.222 1.182.67 0 1.22-.53 1.222-1.181H9.778zm7.944-11.222v5.71c0 .328.27.661.596.743l.32.08c.535.133.918.604.918 1.144 0 .653-.547 1.182-1.225 1.182H3.669c-.675 0-1.225-.531-1.225-1.182 0-.542.381-1.011.916-1.144l.332-.083a.803.803 0 00.586-.74v-5.716c0-3.59 3.009-6.499 6.722-6.499 3.715 0 6.722 2.908 6.722 6.505z"></path>
    </symbol>
    <symbol xmlns="http://www.w3.org/2000/svg" viewBox="0 0 16 21" id="tranding">
        <path fill-rule="evenodd" clip-rule="evenodd" d="M13.615 7.2C15.132 8.51 16 10.117 16 12.321c0 4.59-3.587 8.206-7.989 8.206C3.606 20.527 0 16.909 0 12.32c0-2.527.548-4.089 2.155-6.684.509-.822 1.744-.523 1.84.445.085.87.35 1.61.734 2.177C4.472 5.193 5.804 1.744 9.086.106c.76-.38 1.608.319 1.41 1.16-.512 2.183.016 3.356 1.396 4.621.034.031.206.158.433.326.412.304 1.006.742 1.29.987zM2.621 9.007C2.339 9.663 2 10.453 2 12.321c0 3.447 2.701 6.157 6.011 6.157 3.305 0 5.989-2.705 5.989-6.157 0-1.54-.575-2.605-1.674-3.554-.174-.15-.58-.452-.963-.737-.362-.27-.702-.522-.804-.616C9.234 6.2 8.424 4.907 8.314 3.184c-.67.668-2.21 2.748-1.342 6.864.134.639-.34 1.241-.977 1.241-1.265 0-2.515-.99-3.279-2.507-.03.074-.062.149-.095.225z"></path>
    </symbol>
    <symbol xmlns="http://www.w3.org/2000/svg" viewBox="0 0 18 18" id="subscriptions">
        <path fill-rule="evenodd" clip-rule="evenodd" d="M3.906 1A1 1 0 014.9 0h8.01a1 1 0 010 2H4.9a.995.995 0 01-.995-1zM.01 8.095l.801 8.01A2.123 2.123 0 002.901 18H14.91A2.129 2.129 0 0017 16.104l.801-8.01A1.885 1.885 0 0015.905 6H1.906C.76 6-.104 6.956.01 8.095zm2.001-.09l13.789.003L14.906 16h-12L2.01 8.004zM2.901 3a1 1 0 000 2H14.91a1 1 0 000-2H2.901z"></path>
    </symbol>
    <symbol xmlns="http://www.w3.org/2000/svg" viewBox="0 0 20 19" id="home">
        <path fill-rule="evenodd" clip-rule="evenodd" d="M1.552 10.592a.912.912 0 01-1.286 0 .902.902 0 010-1.28L9.357.266a.912.912 0 011.286 0l9.09 9.048a.902.902 0 010 1.28.912.912 0 01-1.285 0l-.266-.266v6.868A1.81 1.81 0 0116.362 19H3.638a1.812 1.812 0 01-1.819-1.805v-6.868l-.266.265zm2.085 6.598l2.727.001V11.76c0-.499.406-.903.906-.903h5.46c.5 0 .906.404.906.903v5.433l2.728.002V8.519L10 2.192 3.636 8.519l.001 8.671zm8.181-4.525v4.527H8.182v-4.525l3.636-.002z"></path>
    </symbol>
    <symbol xmlns="http://www.w3.org/2000/svg" viewBox="0 0 19 20" id="settings">
        <path fill-rule="evenodd" clip-rule="evenodd" d="M13.468 3.73l-.742-.434s-.776-2.11-.842-2.254C11.637.447 10.961 0 10.284 0H8.42c-.675 0-1.349.446-1.613 1.068-.054.118-.821 2.228-.821 2.228l-.734.436s-2.236-.39-2.392-.404c-.64-.084-1.365.279-1.704.866l-.93 1.612a1.813 1.813 0 00.118 1.931c.074.106 1.519 1.835 1.519 1.835s-.012.285-.012.428c0 .303.01.429.01.429S.42 12.157.328 12.285c-.392.512-.44 1.322-.102 1.909l.931 1.612c.338.585 1.06.945 1.731.863.13-.012 2.343-.402 2.343-.402l.745.425s.778 2.122.843 2.265c.247.596.924 1.043 1.602 1.043h1.862c.675 0 1.348-.446 1.613-1.068.054-.117.83-2.232.83-2.232l.73-.431 2.38.402c.646.085 1.372-.278 1.71-.865l.932-1.612a1.813 1.813 0 00-.119-1.931c-.074-.106-1.52-1.826-1.52-1.826s.013-.291.013-.437c0-.303-.01-.43-.01-.43s1.443-1.727 1.534-1.855c.392-.512.44-1.322.102-1.909l-.931-1.612a1.813 1.813 0 00-1.732-.863c-.129.012-2.347.399-2.347.399zm-2.526.575l.135.45.431.183c.408.174.793.397 1.147.664l.375.282.457-.108c.664-.158 2.225-.42 2.374-.438.087-.01.835 1.286.783 1.356-.09.12-1.097 1.34-1.566 1.837l-.321.34.055.466a5.579 5.579 0 010 1.327l-.055.465.321.34c.469.496 1.475 1.717 1.566 1.838.052.07-.731 1.361-.783 1.355-.15-.019-1.71-.28-2.374-.438l-.457-.108-.375.282a5.49 5.49 0 01-1.147.664l-.431.184-.135.449c-.195.653-.749 2.135-.808 2.273-.034.08-1.53.08-1.565 0-.059-.138-.612-1.62-.807-2.273l-.135-.45-.431-.183a5.494 5.494 0 01-1.147-.664l-.375-.282-.457.109c-.664.157-2.225.418-2.375.437-.086.01-.835-1.286-.782-1.356.09-.12 1.097-1.34 1.566-1.837l.321-.34-.056-.465a5.569 5.569 0 010-1.328l.056-.465-.321-.34C3.157 8.035 2.15 6.814 2.06 6.693c-.053-.07.696-1.365.782-1.355.15.018 1.71.28 2.375.438l.457.108.375-.282a5.49 5.49 0 011.147-.664l.431-.184.135-.449c.195-.653.749-2.135.807-2.273.035-.08 1.531-.08 1.565 0 .06.138.613 1.62.808 2.273zM9.352 13a3 3 0 110-6 3 3 0 010 6zm1-3a1 1 0 11-2 0 1 1 0 012 0z"></path>
    </symbol>
</svg>